# xmcd CD database file
#
# Track frame offsets:
#	150
#	33723
#	60017
#	113976
#	152846
#	178482
#	220002
#	262417
#	293455
#
# Disc length: 4465 seconds
#
# Revision: 0
# Processed by: cddbd v1.5.1PL0 Copyright (c) Steve Scherf et al.
# Submitted via: CDex 1.51
#
DISCID=84116f09
DTITLE=Paban Das Baul and Jonny Wartel - Paban Das Baul and Jonny Wartel
DYEAR=2003
DGENRE=Jazz
TTITLE0=Rai Bandona/Prayer To Radha
TTITLE1=Inginéri Aguner Kol/The Fire Engine
TTITLE2=Holam Aami Ojana/Knowing All, I Know Nothing!
TTITLE3=Bashi Tui Bajhis na/Stop That Flute!
TTITLE4=Elo Prem Rosher Kashari/The Seller Of Love Juice
TTITLE5=Mori Ki Koler Bati/Lamp Of Eternity
TTITLE6=Ultodanga jabi/Upside - Down Shore
TTITLE7=Dao Ma Makhan Noni/Give Me Butter, Mother.
TTITLE8=Nari Niyé Shobai Ghar Karé - Men Who Makes Money W. Women
EXTD=YEAR: 2003
EXTT0=
EXTT1=
EXTT2=
EXTT3=
EXTT4=
EXTT5=
EXTT6=
EXTT7=
EXTT8=
PLAYORDER=
